<svg width="38" height="38" viewBox="0 0 38 38" fill="none" xmlns="http://www.w3.org/2000/svg">
<path d="M33.25 0H4.75C2.13037 0 0 2.13037 0 4.75V33.25C0 35.8696 2.13037 38 4.75 38H33.25C35.8696 38 38 35.8696 38 33.25V4.75C38 2.13037 35.8696 0 33.25 0Z" fill="#439DB0"/>
<path d="M32.0625 19H26.125V14.25C26.125 12.939 27.189 13.0625 28.5 13.0625H30.875V7.125H26.125C22.1896 7.125 19 10.3146 19 14.25V19H14.25V24.9375H19V38H26.125V24.9375H29.6875L32.0625 19Z" fill="#FAFAFA" fill-opacity="0.8"/>
</svg>
