<svg width="33" height="23" viewBox="0 0 33 23" fill="none" xmlns="http://www.w3.org/2000/svg">
<path d="M22.0855 1.99207C24.4821 1.99207 26.7806 2.9394 28.4753 4.6258C30.17 6.3121 31.1221 8.59919 31.1221 10.984V21.4747H25.0977V10.984C25.0977 10.1891 24.7803 9.42669 24.2154 8.86459C23.6505 8.30249 22.8844 7.9867 22.0855 7.9867C21.2866 7.9867 20.5204 8.30249 19.9555 8.86459C19.3906 9.42669 19.0733 10.1891 19.0733 10.984V21.4747H13.0489V10.984C13.0489 8.59919 14.001 6.3121 15.6956 4.6258C17.3903 2.9394 19.6888 1.99207 22.0855 1.99207Z" stroke="white" stroke-width="2" stroke-linecap="round" stroke-linejoin="round"/>
<path d="M7.02449 3.49072H1.00006V21.4747H7.02449V3.49072Z" stroke="white" stroke-width="2" stroke-linecap="round" stroke-linejoin="round"/>
</svg>
