<svg width="30" height="29" viewBox="0 0 30 29" fill="none" xmlns="http://www.w3.org/2000/svg">
<path d="M21.0628 0H8.93716C4.00919 0 0 3.87555 0 8.63925V20.3607C0 25.1244 4.00919 29 8.93716 29H21.0628C25.9908 29 30 25.1244 30 20.3607V8.63925C29.9999 3.87555 25.9908 0 21.0628 0ZM26.982 20.3607C26.982 23.5208 24.3319 26.0826 21.0628 26.0826H8.93716C5.66813 26.0826 3.018 23.5208 3.018 20.3607V8.63925C3.018 5.47913 5.66813 2.9174 8.93716 2.9174H21.0628C24.3319 2.9174 26.982 5.47913 26.982 8.63925V20.3607Z" fill="#439DB0"/>
<path d="M15 7.24094C10.7216 7.24094 7.24091 10.4973 7.24091 14.4999C7.24091 18.5025 10.7216 21.759 15 21.759C19.2783 21.759 22.759 18.5026 22.759 14.4999C22.759 10.4973 19.2783 7.24094 15 7.24094ZM15 18.9356C12.3815 18.9356 10.2589 16.9497 10.2589 14.5C10.2589 12.0503 12.3816 10.0644 15 10.0644C17.6184 10.0644 19.741 12.0503 19.741 14.5C19.741 16.9497 17.6184 18.9356 15 18.9356Z" fill="#439DB0"/>
<path d="M22.7741 8.15844C23.8009 8.15844 24.6333 7.54989 24.6333 6.79921C24.6333 6.04852 23.8009 5.43997 22.7741 5.43997C21.7473 5.43997 20.9149 6.04852 20.9149 6.79921C20.9149 7.54989 21.7473 8.15844 22.7741 8.15844Z" fill="#439DB0"/>
</svg>
