<svg width="33" height="32" viewBox="0 0 33 32" fill="none" xmlns="http://www.w3.org/2000/svg">
<path d="M23.5915 1H8.53049C4.37151 1 1 4.35489 1 8.49336V23.4801C1 27.6185 4.37151 30.9734 8.53049 30.9734H23.5915C27.7504 30.9734 31.122 27.6185 31.122 23.4801V8.49336C31.122 4.35489 27.7504 1 23.5915 1Z" stroke="white" stroke-width="2" stroke-linecap="round" stroke-linejoin="round"/>
<path d="M22.0853 16.0425C22.2712 17.2898 22.0571 18.5636 21.4735 19.6827C20.8899 20.8019 19.9665 21.7095 18.8346 22.2764C17.7027 22.8433 16.4201 23.0406 15.169 22.8403C13.918 22.6399 12.7622 22.0522 11.8662 21.1606C10.9702 20.269 10.3795 19.119 10.1782 17.8742C9.97691 16.6293 10.1752 15.353 10.7449 14.2267C11.3146 13.1005 12.2267 12.1816 13.3514 11.6009C14.4762 11.0202 15.7563 10.8071 17.0098 10.9921C18.2883 11.1807 19.472 11.7736 20.386 12.683C21.2999 13.5925 21.8957 14.7703 22.0853 16.0425Z" stroke="white" stroke-width="2" stroke-linecap="round" stroke-linejoin="round"/>
<path d="M24.3446 9.74414H24.5155" stroke="white" stroke-width="2" stroke-linecap="round" stroke-linejoin="round"/>
</svg>
