<svg width="36" height="30" viewBox="0 0 36 30" fill="none" xmlns="http://www.w3.org/2000/svg">
<path d="M34.1342 2.01263C32.6919 3.02494 31.0951 3.79919 29.4051 4.30557C28.498 3.26777 27.2925 2.5322 25.9516 2.19835C24.6107 1.8645 23.1992 1.94848 21.9078 2.43893C20.6165 2.92937 19.5076 3.80263 18.7313 4.94058C17.955 6.07853 17.5486 7.42628 17.5671 8.80154V10.3002C14.9203 10.3685 12.2977 9.78438 9.9327 8.59989C7.56772 7.4154 5.53384 5.66731 4.0122 3.51129C4.0122 3.51129 -2.0122 16.9992 11.5427 22.9938C8.44093 25.0889 4.74591 26.1394 1 25.9911C14.5549 33.4844 31.122 25.9911 31.122 8.75658C31.1206 8.33914 31.0803 7.92272 31.0015 7.5127C32.5387 6.00429 33.6234 4.09983 34.1342 2.01263Z" stroke="white" stroke-width="2" stroke-linecap="round" stroke-linejoin="round"/>
</svg>
